<svg width="720" height="960" viewBox="0 0 720 960" fill="none" xmlns="http://www.w3.org/2000/svg">
  <rect width="720" height="960" rx="64" fill="#111827"/>
  <rect x="42" y="42" width="636" height="876" rx="46" fill="#FFFBEB"/>
  <rect x="84" y="92" width="552" height="124" rx="28" fill="#F59E0B" fill-opacity="0.16"/>
  <circle cx="142" cy="154" r="38" fill="#F59E0B"/>
  <rect x="200" y="125" width="270" height="18" rx="9" fill="#111827"/>
  <rect x="200" y="162" width="190" height="14" rx="7" fill="#6B7280"/>
  <rect x="84" y="258" width="552" height="104" rx="24" fill="white" stroke="#FDE68A" stroke-width="4"/>
  <rect x="120" y="292" width="280" height="18" rx="9" fill="#111827"/>
  <rect x="120" y="324" width="360" height="14" rx="7" fill="#9CA3AF"/>
  <rect x="84" y="398" width="252" height="236" rx="28" fill="white" stroke="#FDE68A" stroke-width="4"/>
  <rect x="384" y="398" width="252" height="236" rx="28" fill="white" stroke="#FDE68A" stroke-width="4"/>
  <rect x="122" y="430" width="176" height="94" rx="20" fill="#F59E0B" fill-opacity="0.18"/>
  <rect x="422" y="430" width="176" height="94" rx="20" fill="#F59E0B" fill-opacity="0.18"/>
  <rect x="122" y="552" width="164" height="16" rx="8" fill="#111827"/>
  <rect x="422" y="552" width="164" height="16" rx="8" fill="#111827"/>
  <rect x="122" y="586" width="128" height="34" rx="17" fill="#F59E0B"/>
  <rect x="422" y="586" width="128" height="34" rx="17" fill="#F59E0B"/>
  <rect x="84" y="690" width="552" height="86" rx="30" fill="#25D366"/>
  <text x="360" y="744" fill="white" font-family="Arial, sans-serif" font-size="32" text-anchor="middle" font-weight="700">Pedir pelo WhatsApp</text>
</svg>
